<svg width="20" height="20" xmlns="http://www.w3.org/2000/svg"><g id="Story-Page" stroke="none" stroke-width="1" fill="none" fill-rule="evenodd" fill-opacity=".5"><g id="Story-Page-Paid-Subscriber---Share-Story---Desktop" transform="translate(-1068 -791)" fill="#000" fill-rule="nonzero"><g id="External-Link-Tooltip" transform="translate(995 742)"><g id="Group"><g id="Icons/32px/Facebook" transform="translate(67 43)"><path d="M25.167 6H6.834A.833.833 0 006 6.833v18.334c0 .46.373.833.834.833h9.791v-7.5h-2.5v-3.125h2.5v-2.5c0-2.583 1.636-3.854 3.94-3.854 1.104 0 2.052.082 2.329.118v2.7l-1.598.001c-1.253 0-1.546.596-1.546 1.47v2.065h3.125L22.25 18.5h-2.5l.05 7.5h5.367c.46 0 .833-.373.833-.833V6.833A.833.833 0 0025.167 6" id="Fill-3"/></g></g></g></g></g></svg>