<svg width="24" height="20" xmlns="http://www.w3.org/2000/svg"><g id="Story-Page" stroke="none" stroke-width="1" fill="none" fill-rule="evenodd" fill-opacity=".5"><g id="Story-Page-Paid-Subscriber---Share-Story---Desktop" transform="translate(-1014 -791)" fill="#000" fill-rule="nonzero"><g id="External-Link-Tooltip" transform="translate(995 742)"><g id="Group"><g id="Icons/32px/Twitter" transform="translate(15 43)"><path d="M28 8.309a9.83 9.83 0 01-2.828.775 4.932 4.932 0 002.165-2.724 9.864 9.864 0 01-3.127 1.195A4.916 4.916 0 0020.616 6c-3.179 0-5.515 2.966-4.797 6.045A13.978 13.978 0 015.671 6.901a4.93 4.93 0 001.523 6.574 4.903 4.903 0 01-2.229-.616c-.054 2.281 1.581 4.415 3.949 4.89a4.935 4.935 0 01-2.224.084 4.928 4.928 0 004.6 3.419A9.9 9.9 0 014 23.292a13.94 13.94 0 007.548 2.212c9.142 0 14.307-7.721 13.995-14.646A10.025 10.025 0 0028 8.309z" id="Path"/></g></g></g></g></g></svg>