<svg width="20" height="20" xmlns="http://www.w3.org/2000/svg"><g id="Story-Page" stroke="none" stroke-width="1" fill="none" fill-rule="evenodd" fill-opacity=".5"><g id="Story-Page-Paid-Subscriber---Share-Story---Desktop" transform="translate(-1120 -791)" fill="#000" fill-rule="nonzero"><g id="External-Link-Tooltip" transform="translate(995 742)"><g id="Group"><g id="Icons/32px/Whatsapp" transform="translate(119 43)"><path d="M16.042 6a9.915 9.915 0 017.044 2.906A9.828 9.828 0 0126 15.917c-.002 5.372-4.32 9.76-9.68 9.907l-.278.004h-.005a9.992 9.992 0 01-4.758-1.206L6 26l1.413-5.136a9.859 9.859 0 01-1.33-4.954C6.085 10.446 10.553 6 16.042 6zm-3.526 5.333a.915.915 0 00-.663.31c-.228.248-.871.847-.871 2.066 0 1.219.891 2.396 1.016 2.562.124.165 1.754 2.666 4.25 3.738.594.255 1.057.408 1.419.522.596.188 1.138.162 1.567.098.478-.07 1.472-.599 1.68-1.177.207-.579.207-1.075.145-1.178-.062-.103-.229-.165-.477-.289-.249-.124-1.473-.723-1.7-.806-.229-.082-.395-.123-.56.124-.166.248-.643.806-.788.971-.145.165-.29.186-.54.062-.248-.123-1.05-.385-2-1.23-.74-.655-1.24-1.467-1.385-1.714-.145-.248-.015-.382.11-.506.111-.11.249-.29.373-.433.124-.145.166-.249.249-.414.083-.165.041-.31-.021-.433-.062-.125-.56-1.344-.767-1.84-.202-.482-.407-.417-.56-.424a9.6 9.6 0 00-.477-.009z" id="Combined-Shape"/></g></g></g></g></g></svg>